<?xml version="1.0" encoding="utf-8"?>
<!-- Generator: Adobe Illustrator 16.0.0, SVG Export Plug-In . SVG Version: 6.00 Build 0)  -->
<!DOCTYPE svg PUBLIC "-//W3C//DTD SVG 1.1//EN" "http://www.w3.org/Graphics/SVG/1.1/DTD/svg11.dtd">
<svg version="1.1" id="Layer_1" xmlns="http://www.w3.org/2000/svg" xmlns:xlink="http://www.w3.org/1999/xlink" x="0px" y="0px"
	 width="1487.504px" height="138.194px" viewBox="0 0 1487.504 138.194" enable-background="new 0 0 1487.504 138.194"
	 xml:space="preserve">
<path fill="none" stroke="#056780" stroke-width="2.25" stroke-linecap="round" stroke-miterlimit="10" stroke-dasharray="5,5,5,5,5,5" d="
	M1398.736,83.233c-146.334,12.717-212.837-71.68-346.814-73.461c-166.697-2.217-196.361,105.145-354,105.145
	s-216.005-81.4-381.977-81.325S84.004,98.944-16,98.25"/>
<g>
	<path fill="#03A3CC" d="M1438.07,71.33c7.473-12.395,11.176-27.348,11.289-27.867c9.449-1.453,14.168-4.215,16.129-7.383
		l-6.824-6.414l5.031-5.699c-2.137-3.168-4.648-5.407-4.648-5.407c-15.176-13.484-17.895,8.926-18.559,16.59
		c-10.375,13.313-23.297,17.617-34.895,18.082c-6.488,0.254-12.562-0.687-17.547-1.929c-0.465-0.118-0.91-0.231-1.352-0.352
		c-4.16-1.117-7.438-2.406-9.406-3.254c0.008,0.152-0.074,0.27-0.199,0.367c-0.129,0.414-0.274,0.848-0.418,1.305
		c23.777,43.167,41.504,43.464,53.496,32.116C1433.152,78.666,1435.785,75.119,1438.07,71.33L1438.07,71.33z M1456.144,22.888
		c0.863-0.25,1.773,0.297,2.031,1.223c0.258,0.938-0.238,1.899-1.113,2.152c-0.863,0.25-1.773-0.296-2.031-1.222
		C1454.777,24.103,1455.273,23.142,1456.144,22.888L1456.144,22.888z M1437.382,53.178c0,0-19.238,39.475-35.512,9.199
		C1401.871,62.385,1422.433,69.545,1437.382,53.178L1437.382,53.178z M1437.382,53.178"/>
	<path fill="#056780" d="M1437.382,53.178c-14.949,16.367-35.512,9.199-35.512,9.199
		C1418.144,92.653,1437.382,53.178,1437.382,53.178L1437.382,53.178z M1437.382,53.178"/>
	<path fill="#0E404C" d="M1457.062,26.263c0.875-0.253,1.371-1.214,1.113-2.152c-0.258-0.926-1.168-1.473-2.031-1.223
		c-0.871,0.254-1.367,1.215-1.113,2.153C1455.289,25.967,1456.199,26.513,1457.062,26.263L1457.062,26.263z M1457.062,26.263"/>
	<path fill="#F58539" d="M1481.2,30.111l-17.505-6.144l-5.031,5.699l6.824,6.414L1481.2,30.111z M1481.2,30.111"/>
	<path fill="#057A99" d="M1365.679,28.92c0.375-0.481,0.746-0.825,1.105-1.055c0.438-0.289,0.87-0.402,1.278-0.379
		c2.217,0.129,3.967,4.281,4.961,7.234c0.312,0.918,0.541,1.728,0.694,2.247c0.009,0.027,0.015,0.058,0.022,0.082
		c0.818,2.824,1.457,5.726,1.953,8.64c0.474,0.664,0.879,1.254,1.207,1.75c0.06,0.024,0.106,0.047,0.138,0.082
		c0.051,0.016,0.098,0.039,0.146,0.055c0.096,0.039,0.104,0.105,0.053,0.16c-0.006,0.039-0.03,0.078-0.101,0.129v0.07
		c-0.016,0.039-0.03,0.09-0.047,0.129c0.125-0.097,0.207-0.222,0.199-0.367c0-0.008,0.008-0.023,0.008-0.031
		c-0.219-1.516-0.815-5.395-1.854-9.426c-0.168-0.664-0.353-1.336-0.556-2c-1.543-5.223-3.84-10.062-7.03-9.68
		c-0.414,0.047-0.841,0.184-1.283,0.422c-0.422,0.227-0.862,0.539-1.307,0.953c-1.595,1.465-2.9,3.465-3.707,5.633
		c0.44,0.031,0.897,0.113,1.351,0.246C1363.582,32.041,1364.565,30.345,1365.679,28.92L1365.679,28.92z M1365.679,28.92"/>
	<path fill="#057A99" d="M1366.375,45.431c-0.582-0.289-1.095-0.605-1.552-0.953c-0.151-0.031-0.303-0.07-0.457-0.101
		c-0.471-0.09-1.038-0.207-1.663-0.328c0.448,0.519,0.969,0.992,1.586,1.414c2.176,1.496,4.948,2.273,7.735,2.601
		c0.983-0.176,1.967-0.336,2.953-0.465c-0.192-0.078-0.384-0.152-0.578-0.222C1371.632,47.217,1368.815,46.615,1366.375,45.431
		L1366.375,45.431z M1366.375,45.431"/>
	<path fill="#057A99" d="M1362.649,34.553l-0.076-0.023c-0.452-0.16-0.87-0.226-1.26-0.234c-0.985,3.129-0.899,6.511,0.862,9.074
		c0.558,0.07,1.129,0.152,1.695,0.246C1361.632,41.209,1361.593,37.791,1362.649,34.553L1362.649,34.553z M1362.649,34.553"/>
	<path fill="#057A99" d="M1356.809,43.674c-0.427,0.062-0.832,0.16-1.216,0.285c0.711,3.16,3.336,5.449,7.527,5.922
		c0.551,0.054,1.102,0.093,1.664,0.121c0.598-0.219,1.215-0.418,1.831-0.61C1361.895,49.486,1357.565,48.209,1356.809,43.674
		L1356.809,43.674z M1356.809,43.674"/>
	<path fill="#057A99" d="M1356.761,40.943c0.277-2.648,1.484-6.703,4.552-6.648c0.39,0.008,0.808,0.074,1.26,0.234l0.076,0.023
		c2.381,0.832,4.414,2.886,6.144,4.632c2.254,2.285,4.297,4.856,6.125,7.512c0.731,0.27,1.356,0.512,1.867,0.719
		c0.047,0.008,0.086,0.015,0.116,0.023c-0.328-0.496-0.733-1.086-1.213-1.75c-2.879-4.023-8.168-10.519-12.778-11.875
		c-0.462-0.125-0.91-0.215-1.351-0.238c-1.927-0.113-3.673,0.887-4.978,3.641c-1.062,2.261-1.39,4.421-1.078,6.304
		c0.397-0.105,0.824-0.176,1.258-0.242C1356.679,42.576,1356.671,41.799,1356.761,40.943L1356.761,40.943z M1356.761,40.943"/>
	<path fill="#057A99" d="M1374.106,48.615c-2.037,0.297-4.06,0.73-6.037,1.273c1.563-0.136,3.129-0.41,4.664-0.761
		C1373.198,48.959,1373.655,48.791,1374.106,48.615L1374.106,48.615z M1374.106,48.615"/>
	<path fill="#057A99" d="M1353.405,51.674c-1.702-1.364-0.84-4.196-0.101-5.809c0.437-0.977,1.269-1.57,2.289-1.906
		c0.384-0.125,0.789-0.223,1.216-0.278c1.885-0.273,4.12,0.047,5.894,0.375c0.625,0.114,1.192,0.231,1.663,0.329l0.457,0.093
		c3.246,0.692,6.474,1.692,9.576,2.899c0.194,0.07,0.386,0.144,0.578,0.222c0.487-0.062,0.983-0.121,1.471-0.175h0.009
		c0.047,0,0.086-0.008,0.137-0.016c0.022,0,0.039,0.008,0.062,0c0.017,0,0.033,0.008,0.048,0.008h0.09
		c-0.513-0.207-1.144-0.449-1.863-0.711c-2.801-1.031-6.977-2.375-11.059-3.09c-0.566-0.094-1.138-0.176-1.695-0.246
		c-1.93-0.242-3.785-0.305-5.405-0.082c-0.442,0.058-0.869,0.137-1.259,0.234c-2.969,0.766-4.817,2.774-4.223,6.887
		c0.391,2.703,3.137,3.434,6.711,3.168c0.246-0.215,0.512-0.434,0.776-0.633C1356.733,53.072,1354.815,52.783,1353.405,51.674
		L1353.405,51.674z M1353.405,51.674"/>
	<path fill="#057A99" d="M1375.75,48.408c-0.552,0.062-1.095,0.129-1.644,0.207c-0.451,0.176-0.908,0.344-1.373,0.512
		c-1.655,0.617-3.334,1.176-5.022,1.707c-1.815,0.558-4.336,1.414-6.863,1.855c-0.36,0.215-0.702,0.438-1.038,0.688
		c5.711-0.848,12.726-3.571,15.918-4.891C1375.733,48.455,1375.741,48.431,1375.75,48.408L1375.75,48.408z M1375.75,48.408"/>
	<path fill="#057A99" d="M1377.237,47.736c0.052-0.055,0.043-0.121-0.053-0.16c-0.048-0.016-0.106-0.039-0.146-0.055
		c0.008,0.008,0.008,0.016,0.016,0.024c0.015,0.023,0.023,0.047,0.043,0.07c0.009,0.008,0.015,0.016,0.015,0.023
		c0.033,0.067,0.039,0.137,0.024,0.227C1377.198,47.814,1377.231,47.775,1377.237,47.736L1377.237,47.736z M1377.237,47.736"/>
	<path fill="#057A99" d="M1377.128,47.935c0.008-0.031,0.008-0.047,0.008-0.07c0.015-0.09,0.009-0.16-0.024-0.227
		c0-0.007-0.006-0.015-0.015-0.023c-0.02-0.023-0.028-0.047-0.043-0.07c-0.008-0.008-0.008-0.016-0.016-0.024
		c-0.031-0.035-0.078-0.058-0.138-0.082c-0.03-0.008-0.069-0.015-0.116-0.023h-0.082c-0.015-0.008-0.031-0.008-0.054-0.008h-0.056
		c-0.051,0.008-0.098,0.008-0.137,0.016h-0.009c-0.487,0.046-0.983,0.113-1.471,0.175c-0.994,0.129-1.97,0.289-2.953,0.473
		c-1.832,0.336-3.642,0.777-5.408,1.32c-0.616,0.192-1.233,0.391-1.831,0.61c-0.746,0.261-1.48,0.535-2.212,0.84
		c-1.254,0.527-2.612,1.222-3.797,2.101c-0.272,0.199-0.53,0.41-0.776,0.633c-0.601,0.535-1.129,1.129-1.535,1.793
		c-0.969,1.605-1.655,4.726-0.168,6.312c2.022,2.161,4.97,3.497,7.94,3.254c7.029-0.558,10.49-9.597,12.435-15.566
		c0.144-0.457,0.289-0.891,0.418-1.305C1377.106,48.025,1377.121,47.974,1377.128,47.935L1377.128,47.935z M1363.917,64.064
		c-2.383,0.184-4.935-1.265-6.526-2.969c-1.904-2.039-0.025-5.566,1.562-7.023c0.27-0.246,0.559-0.48,0.856-0.695
		c0.336-0.25,0.678-0.473,1.038-0.688c1.648-0.984,3.535-1.656,5.312-2.234c0.625-0.207,1.266-0.383,1.909-0.567
		c1.978-0.543,4-0.976,6.037-1.273c0.549-0.078,1.092-0.145,1.644-0.207l-0.022,0.07
		C1373.917,54.178,1370.815,63.506,1363.917,64.064L1363.917,64.064z M1363.917,64.064"/>
</g>
</svg>
